<?xml version="1.0" encoding="UTF-8"?>
<svg width="15px" height="17px" viewBox="0 0 15 17" version="1.1" xmlns="http://www.w3.org/2000/svg" xmlns:xlink="http://www.w3.org/1999/xlink">
    <!-- Generator: Sketch 53.2 (72643) - https://sketchapp.com -->
    <title>应用</title>
    <desc>Created with Sketch.</desc>
    <g id="Page-1" stroke="none" stroke-width="1" fill="none" fill-rule="evenodd" fill-opacity="0.5">
        <g id="2.0应用提交记录" transform="translate(-1172.000000, -61.000000)" fill="#333333" fill-rule="nonzero">
            <g id="导航">
                <g id="登录应用" transform="translate(1160.000000, 50.000000)">
                    <g id="我的应用">
                        <g id="应用" transform="translate(12.000000, 11.000000)">
                            <path d="M0.7875,3.6375 L6.7051875,0.21975 C7.19176693,-0.0613108053 7.79135807,-0.0613108053 8.2779375,0.21975 L14.1961875,3.6375 C14.6827286,3.91849393 14.9824704,4.43764608 14.9825625,4.9995 L14.9825625,11.8325625 C14.9825864,12.3944475 14.6828135,12.9136535 14.1961875,13.1945625 L8.2779375,16.6125 C7.79130624,16.8933674 7.19181876,16.8933674 6.7051875,16.6125 L0.7875,13.1945625 C0.300440923,12.9139396 0.000208057324,12.3946797 -1.42108547e-14,11.8325625 L-1.42108547e-14,4.9985625 C0.000658897703,4.43681154 0.300815714,3.91804051 0.7875,3.6375 Z M7.529625,15.315 L13.4844375,11.83275 L13.4469375,4.93425 L7.45425,1.5170625 L1.4986875,4.9985625 L1.5361875,11.8970625 L7.45425,15.3140625 C7.46562576,15.3207376 7.47856067,15.3242947 7.49175,15.324375 L7.529625,15.315 Z" id="形状"></path>
                            <path d="M7.1169375,7.4503125 L4.76925,6.094875 C4.2699375,5.8065 4.2699375,5.08575 4.76925,4.797375 L7.1169375,3.4419375 C7.3486775,3.30805297 7.63426,3.30805297 7.866,3.4419375 L10.2136875,4.797375 C10.7131875,5.08575 10.7131875,5.8065 10.2136875,6.094875 L7.866,7.4503125 C7.63418756,7.58392655 7.34874994,7.58392655 7.1169375,7.4503125 Z" id="路径"></path>
                            <path d="M6.84375,9.22275 L6.84375,11.9334375 C6.84375,12.5101875 6.219375,12.8709375 5.7200625,12.5821875 L3.3714375,11.22675 C3.13951276,11.0931162 2.99654714,10.8458572 2.9964375,10.5781875 L2.9964375,7.8673125 C2.9964375,7.2905625 3.6208125,6.9298125 4.120125,7.2185625 L6.46875,8.574 C6.70073276,8.70766723 6.84370738,8.95501332 6.84375,9.22275 Z" id="形状"></path>
                            <path d="M8.51475,8.574 L10.8624375,7.21875 C11.3619375,6.930375 11.986125,7.29075 11.986125,7.8675 L11.986125,10.5781875 C11.9860928,10.845878 11.8431064,11.093173 11.611125,11.22675 L9.263625,12.5821875 C8.764125,12.8705625 8.1399375,12.5101875 8.1399375,11.9334375 L8.1399375,9.22275 C8.13990275,8.95504165 8.28281107,8.70768657 8.51475,8.574 Z" id="形状"></path>
                        </g>
                    </g>
                </g>
            </g>
        </g>
    </g>
</svg>