<?xml version="1.0" encoding="UTF-8"?>
<svg width="18px" height="18px" viewBox="0 0 18 18" version="1.1" xmlns="http://www.w3.org/2000/svg" xmlns:xlink="http://www.w3.org/1999/xlink">
    <!-- Generator: Sketch 53.2 (72643) - https://sketchapp.com -->
    <title>Shape</title>
    <desc>Created with Sketch.</desc>
    <g id="Page-1" stroke="none" stroke-width="1" fill="none" fill-rule="evenodd">
        <g id="1.1首页" transform="translate(-1455.000000, -23.000000)" fill="#FFFFFF" fill-rule="nonzero">
            <g id="导航" transform="translate(361.000000, 13.000000)">
                <g id="中文" transform="translate(1094.000000, 8.000000)">
                    <g id="diqiu" transform="translate(0.000000, 2.000000)">
                        <path d="M8.84210526,7.53421052 C8.84210526,7.40087719 8.84210526,7.40087719 8.84210526,7.53421052 C8.84210526,7.40087719 8.84210526,7.53421052 8.84210526,7.53421052 Z M12.368421,11.2631579 L12.2631579,11.2631579 C12.2631579,11.2631579 12.3157895,11.4881579 12.368421,11.2631579 Z M9,0 C4.05263158,0 0,3.99999999 0,9 C0,14 3.99999999,18 9,18 C13.9473684,18 18,14 18,9 C18,3.99999999 14,0 9,0 Z M14.7368421,3.52631578 C14.4210526,3.52631578 14.2105263,3.52631578 13.9473684,3.68421053 C13.8421053,3.73684212 13.7894737,3.84210527 13.6315789,3.89473684 C13.5263158,3.94736843 13.3684211,3.89473684 13.2631579,3.94736843 C12.8421053,4.10526317 12.8947368,4.94736844 12.368421,4.84210526 C12.1052631,4.78947367 11.9473684,4.47368421 11.7894737,4.26315789 C11.6842105,4.10526315 11.4736842,3.94736843 11.631579,3.73684209 L11.4210526,3.73684209 C11.5263158,3.52631578 11.7894737,3.57894735 11.8421053,3.47368422 C11.9473684,3.21052632 11.5263158,3.21052632 11.3684211,3.15789473 C11.5263158,2.99999998 11.5789474,3.21052632 11.7368421,3.15789473 C11.8947369,3.10526314 11.6842105,2.94736842 11.5789474,2.89473683 C11.5263158,2.89473683 11.0526316,3.05263157 11.3157895,2.78947367 C10.9473684,2.57894736 10.5789474,2.31578946 10.2105263,2.10526315 C10.1578947,2.36842105 10.6842105,2.52631577 10.8947368,2.57894736 C10.8421053,2.68421052 10.6842105,2.84210526 10.5789474,2.78947367 C10.4736842,2.73684208 10.5263158,2.52631577 10.3157895,2.57894736 C10.2105263,2.89473683 10.5789474,2.78947367 10.6315789,3.00000001 C10.6842105,3.21052632 10.4736842,3.10526316 10.4210526,3.10526316 C10.4210526,3.10526316 10.2631579,2.94736842 10.2631579,3.05263157 C10.2631579,3.15789473 10.4736842,3.15789473 10.5263158,3.26315788 C10.2631579,3.26315788 10.1052632,3.15789473 9.89473683,3.05263157 C9.63157893,2.89473683 9.52631578,2.89473683 9.21052631,2.89473683 C9.31578947,2.84210524 9.42105262,2.84210524 9.52631578,2.78947367 C9.57894737,2.73684208 9.73684209,2.57894736 9.73684211,2.5263158 C9.7894737,2.36842105 9.73684211,2.36842105 9.57894737,2.2631579 C9.52631578,2.21052631 9.36842106,2 9.15789474,2 C8.57894738,1.89473684 8.94736843,2.5263158 8.52631579,2.63157895 C8.42105263,2.63157895 8.21052632,2.57894736 8.15789473,2.68421052 C8.10526315,2.73684211 8.10526315,2.89473683 8.05263158,2.94736842 C7.94736842,3.05263157 7.78947368,3.05263157 7.68421052,3.15789473 C7.57894737,3.21052632 7.31578947,3.42105263 7.2631579,3.52631578 C7,3.99999999 7.7894737,4.15789474 8.10526315,4.26315789 C8.26315789,4.31578948 8.63157894,4.42105264 8.68421053,4.52631579 C8.78947369,4.68421054 8.57894738,4.78947369 8.78947369,4.89473685 C8.84210528,4.94736844 9,4.94736844 9.05263157,4.84210526 C9.15789472,4.73684211 8.99999998,4.73684211 9,4.57894736 C8.94736841,4.36842105 9.05263159,4.42105262 9.15789474,4.36842105 C9.36842106,4.21052631 9.31578949,4.15789474 9.2631579,3.89473684 C9.21052631,3.78947368 9.05263159,3.42105263 9.21052631,3.31578947 C9.36842106,3.21052632 9.73684211,3.36842106 9.89473683,3.42105263 C10.0526316,3.42105263 10.1578947,3.63157894 10.2105263,3.73684209 C10.2631579,3.78947368 10.3684211,3.89473684 10.4736842,3.89473684 C10.6315789,3.89473684 10.5789474,3.73684209 10.6315789,3.68421053 C10.8947368,3.52631578 10.9473684,3.73684212 11.0526316,3.94736843 C11.1578947,4.15789474 11.2105263,4.21052633 11.3684211,4.36842105 C11.4210526,4.42105264 11.7894737,4.63157895 11.7368421,4.78947367 C11.7368421,4.89473683 11.3684211,4.99999998 11.2631579,5.05263157 C10.8947368,5.15789473 10.2105263,4.84210526 10.1578947,5.42105263 C10.3157895,5.36842104 10.6842105,5.05263157 10.7894737,5.21052632 C10.8421053,5.26315791 10.7368421,5.36842106 10.7894737,5.47368422 C10.8421053,5.68421053 11,5.63157896 11.2105263,5.57894737 L11.1578947,5.57894737 C11.3684211,5.47368422 11.3684211,5.47368422 11.4736842,5.31578947 C11.5263158,5.26315788 11.5789474,5.10526316 11.631579,5.05263157 C11.7894737,4.89473683 11.8421053,4.99999998 11.9473684,5.10526316 C12,5.15789475 12.2105263,5.52631578 12.1578947,5.47368422 C11.8421053,5.42105263 11.5789474,5.42105263 11.3157895,5.57894737 C11.1578947,5.68421053 11.0526316,5.78947368 10.8947368,5.84210527 C10.8421053,5.84210527 10.5263158,5.89473686 10.5789474,5.84210527 C10.631579,5.78947368 10.7894737,5.73684212 10.8947368,5.63157894 C10.6842105,5.52631578 10.5263158,5.73684209 10.368421,5.84210527 C10.2105263,5.89473686 10.1578947,6.05263158 10.0526316,6.2105263 C9.99999999,6.26315789 9.89473683,6.26315789 9.84210527,6.36842105 C9.78947368,6.42105264 9.78947368,6.52631579 9.73684211,6.63157895 C9.68421052,6.68421054 9.57894737,6.63157895 9.57894737,6.7368421 C9.52631578,6.84210526 9.63157896,6.89473685 9.57894737,7 C9.52631578,7.10526316 9.31578947,7.21052631 9.21052631,7.31578947 L9.2631579,7.2631579 C9.15789474,7.36842106 9.05263159,7.42105265 9,7.52631578 C9.05263159,7.68421052 9.15789474,8.05263158 9.10526316,8.10526315 C8.84210526,8.31578946 8.68421053,7.89473683 8.57894736,7.78947368 C8.31578946,7.42105262 7.84210525,7.68421052 7.47368421,7.68421052 C7.05263159,7.73684211 6.63157895,8.26315789 6.89473685,8.7368421 C7,8.94736841 7.2631579,9.05263157 7.47368421,9 C7.68421052,8.94736841 7.73684211,8.63157894 7.94736842,8.63157894 C8.31578948,8.63157894 7.94736842,9 7.94736842,9.15789474 C7.89473683,9.2631579 8.00000001,9.31578949 8.10526315,9.31578947 C8.2105263,9.31578947 8.36842104,9.26315788 8.42105263,9.31578947 C8.47368422,9.36842106 8.47368422,9.52631578 8.52631579,9.47368421 C8.36842104,9.57894737 8.42105263,9.89473683 8.57894736,9.99999999 C8.7368421,10.1052631 8.94736841,9.99999999 9.10526316,10.0526316 C9.42105262,10.1578947 9.2631579,10.0526316 9.57894737,9.84210527 C9.78947368,9.73684211 9.78947368,9.84210527 9.94736842,9.84210527 C10.0526316,9.84210527 10.1052632,9.73684211 10.2631579,9.73684211 C10.368421,9.7894737 10.4210526,9.84210527 10.5789474,9.89473683 L10.7368421,9.89473683 C11,9.94736842 11.2105263,10.1052631 11.4210526,10.2631579 C11.5789474,10.368421 11.7368421,10.368421 11.9473684,10.4210526 C12.1052632,10.4736842 12.368421,10.6842105 12.368421,10.8947368 C12.368421,10.9473684 12.2105263,11.1052632 12.2105263,11.1578947 C12.2631579,11.2105263 12.5263158,11.1052632 12.5789474,11.1052632 C12.5789474,11.1578947 12.3684211,11.2631579 12.368421,11.2105263 C12.368421,11.2631579 12.4736842,11.3157895 12.5263158,11.3157895 C12.6315789,11 12.7894737,11.2105263 12.9473684,11.2631579 C13.1052632,11.3157895 13.3157895,11.3157895 13.4736842,11.3684211 C13.6315789,11.4210526 13.9473684,11.5263158 14.0526316,11.631579 C14.1578947,11.7894737 14.1052632,12 14,12.1578947 C13.8947368,12.368421 13.6842105,12.4210526 13.5789474,12.6315789 C13.5263158,12.7894737 13.5789474,13 13.5263158,13.1578947 C13.4736842,13.4210526 13.4210526,13.3157895 13.2631579,13.4736842 C13.1052632,13.6315789 13.2631579,13.5789474 13.0526316,13.6842105 C12.8421053,13.7894737 12.6842105,13.7368421 12.5263158,13.9473684 L12.5263158,13.8947368 C12.4736842,14 12.4210526,14.1578947 12.4210526,14.2105263 C12.368421,14.3684211 12.2631579,14.4210526 12.1578947,14.5263158 C12.1052631,14.5789474 11.7368421,15.1052631 11.7368421,15.0526316 C11.6842105,15 11.4210526,15.1052632 11.4210526,15.0526316 C11.4210526,15.1052632 11.4210526,15.1052632 11.4736842,15.1578947 C11.4210526,15.5789474 11.2105263,15.6315789 10.7894737,15.6315789 C10.8421053,15.8421053 10.6315789,15.7894737 10.5263158,15.8947368 C10.4736842,15.9473684 10.4736842,16.1578947 10.4210526,16.2105263 C10.4210526,16.2631579 10.2105263,16.4736842 10.2105263,16.5263158 C10.2105263,16.5789474 10.2631579,16.6315789 10.3157895,16.6842105 C10,16.7368421 9.73684211,16.7894737 9.42105262,16.7894737 C9.47368421,16.7368421 9.47368421,16.6315789 9.31578947,16.6315789 C9.36842106,16.4736842 9.47368421,16.4210526 9.52631578,16.3157895 L9.52631578,16.1578947 C9.57894737,15.9473684 9.57894737,16.0526316 9.52631578,15.8947368 C9.42105262,15.5263158 9.57894737,15.4210526 9.68421052,15.0526316 C9.78947368,14.6842105 9.78947368,14.2631579 9.84210527,13.8421053 C9.89473685,13.6842105 9.94736842,13.2631579 9.84210527,13.1052632 C9.78947368,12.8947368 9.47368421,12.7368421 9.31578947,12.6315789 C9.10526316,12.4210526 9,12.2631579 8.84210526,12 C8.78947367,11.8947369 8.68421051,11.7894737 8.63157894,11.631579 C8.52631579,11.3684211 8.63157894,11.5263158 8.63157894,11.3684211 C8.63157894,11.2105263 8.63157894,11.0526316 8.68421053,10.8947368 C8.73684212,10.7368421 8.89473684,10.5789474 9,10.4210526 C9.05263159,10.2631579 9,10.0526316 8.84210526,9.99999999 C8.7368421,9.9473684 8.63157894,10.0526316 8.57894736,9.99999999 C8.4736842,9.99999999 8.31578946,9.89473683 8.21052632,9.78947368 C8.05263158,9.68421052 8.00000001,9.52631578 7.84210527,9.42105262 C7.73684211,9.31578947 7.63157896,9.36842103 7.47368421,9.36842106 C7.31578947,9.31578947 7.2631579,9.15789474 7.15789472,9.10526316 C6.99999998,9 6.89473682,9.15789474 6.7368421,9.10526316 C6.57894736,9.10526316 6.36842105,8.89473684 6.2105263,8.84210526 C5.89473684,8.7368421 5.73684209,8.57894736 5.63157894,8.26315789 C5.52631578,7.99999999 5.36842104,7.89473683 5.21052632,7.68421052 C5.05263157,7.47368421 5.00000001,7.31578947 4.73684211,7.21052631 C4.68421052,7.21052631 4.78947369,7.42105262 4.78947367,7.47368421 C4.89473683,7.63157896 5.05263157,7.78947368 5.15789473,7.99999999 C5.31578947,8.26315789 5.26315788,8.26315789 5.10526316,8.05263158 C4.89473685,7.78947368 4.68421054,7.52631578 4.52631579,7.2631579 C4.63157895,7.36842106 4.63157895,7.2631579 4.52631579,7.15789472 C4.42105264,7.05263155 4.26315789,6.99999998 4.21052631,6.89473685 C3.84210525,6.57894738 3.78947368,6.10526317 3.78947368,5.63157894 C3.78947368,5.47368419 3.84210527,5.36842104 3.84210525,5.21052632 C3.84210525,5.10526316 3.73684209,5.00000001 3.63157894,4.89473685 C3.57894735,4.84210526 3.52631578,4.73684211 3.52631578,4.73684211 C3.42105263,4.57894736 3.36842104,4.47368421 3.26315788,4.36842105 C3.2105263,4.31578946 2.99999998,4.15789474 2.78947367,3.99999999 C3.63157894,2.94736842 4.73684211,2.10526315 5.99999999,1.57894738 C5.99999999,1.63157897 6.05263158,1.68421053 6.05263158,1.78947369 C6.21052633,1.94736843 6.31578948,1.94736843 6.4736842,2 C6.4736842,2.21052631 6.15789474,2.2631579 5.99999999,2.21052631 C5.78947368,2.15789472 5.52631578,2.10526315 5.36842106,2.31578946 C5.47368422,2.36842105 5.78947368,2.63157893 5.73684209,2.36842105 L6.36842105,2.36842105 C6.4736842,2.36842105 6.7368421,2.47368421 6.78947369,2.42105262 C6.84210528,2.42105262 6.84210528,2.26315787 6.89473685,2.21052631 C6.84210526,2.21052631 6.78947369,2.15789472 6.7368421,2.21052631 C6.89473685,2.05263156 7,2.15789472 7.21052631,2.2631579 C7,2.36842105 7.15789472,2.68421052 7.31578947,2.42105262 C7.47368421,2.21052631 7.26315788,2.10526315 7.10526316,2 C7.31578947,1.7368421 7.42105262,1.7368421 7.63157893,2 C7.68421052,1.84210525 7.78947368,1.89473684 7.94736842,1.89473684 L7.94736842,1.84210525 C7.89473683,1.84210525 7.78947368,1.78947366 7.73684211,1.78947369 C7.89473686,1.52631579 7.7894737,1.47368422 7.99999999,1.42105263 C8.15789473,1.36842104 8.63157894,1.42105263 8.7368421,1.26315789 C8.42105263,1.31578948 7.99999999,1.36842104 7.68421052,1.4736842 C7.52631578,1.52631579 7.42105262,1.7368421 7.2631579,1.63157894 C7.10526316,1.4736842 7.36842106,1.26315789 7.47368421,1.21052632 L7.42105262,1.21052632 C7.94736842,1.10526317 8.52631579,1.05263158 9.10526316,1.05263158 C9.47368421,1.05263158 9.84210527,1.10526317 10.2105263,1.10526317 C10.1052632,1.15789475 10.1578947,1.21052632 10.1052632,1.26315789 C9.94736842,1.36842104 9.63157896,1.4736842 9.42105262,1.57894738 C9.68421052,1.57894738 10.3157895,1.84210528 10.4210526,1.4736842 C10.3157895,1.4736842 10.2631579,1.4736842 10.1578947,1.42105263 C10.3157895,1.31578948 10.4736842,1.21052632 10.6842105,1.15789473 C12.2105263,1.52631579 13.6842105,2.36842105 14.7368421,3.52631578 C14.7894737,3.52631578 14.7368421,3.52631578 14.7368421,3.52631578 Z M16.2105263,6.68421051 C16.2105263,6.63157892 16.2631579,6.63157892 16.2631579,6.63157895 C16.3157895,6.57894736 16.2631579,6.52631579 16.3157895,6.4736842 C16.3684211,6.42105261 16.4210526,6.42105261 16.4736842,6.36842105 L16.5263158,6.31578948 C16.6842105,6.68421054 16.7894737,7.05263159 16.8421053,7.47368421 L16.6842105,7.52631578 C16.5789474,7.52631578 16.5263158,7.47368419 16.4736842,7.42105262 L16.2631579,7.21052631 C16.2105263,7.10526316 16.2631579,7.05263157 16.2631579,6.94736841 C16.2105263,6.84210526 16.1578947,6.7368421 16.2105263,6.68421051 Z M16.3157895,10.7894737 C16.1578947,10.6315789 16,10.4736842 15.8947368,10.3157895 C15.7894737,10.1052632 15.8421053,9.94736842 15.8421053,9.73684211 C15.8421053,9.57894737 15.7368421,9.31578949 15.8421053,9.15789474 L16,9 C16.0526316,8.89473684 16.0526316,8.78947369 16.1578947,8.68421053 C16.2631579,8.57894738 16.368421,8.52631579 16.4736842,8.42105263 C16.5789474,8.31578948 16.5789474,8.26315789 16.6315789,8.10526315 C16.6842105,7.99999999 16.7894737,7.84210525 16.8947368,7.78947368 C16.9473684,8.2105263 17,8.57894736 17,9 C17,9.68421052 16.8947368,10.4210526 16.7368421,11.0526316 C16.5789474,11 16.4210526,10.8947368 16.3157895,10.7894737 Z" id="Shape"></path>
                    </g>
                </g>
            </g>
        </g>
    </g>
</svg>