<?xml version="1.0" encoding="UTF-8"?>
<svg width="18px" height="18px" viewBox="0 0 18 18" version="1.1" xmlns="http://www.w3.org/2000/svg" xmlns:xlink="http://www.w3.org/1999/xlink">
    <!-- Generator: Sketch 53.2 (72643) - https://sketchapp.com -->
    <title>分组</title>
    <desc>Created with Sketch.</desc>
    <g id="Page-1" stroke="none" stroke-width="1" fill="none" fill-rule="evenodd">
        <g id="1.1首页" transform="translate(-1203.000000, -23.000000)" fill="#FFFFFF" fill-rule="nonzero">
            <g id="导航" transform="translate(361.000000, 13.000000)">
                <g id="分组" transform="translate(842.000000, 10.000000)">
                    <path d="M9.00001,0 C13.9706211,0 18.00002,4.02939892 18,9.00001 C18,13.9706011 13.9705811,18 9.00001,18 C4.02939892,18 0,13.9705811 0,9.00001 C0,4.02939892 4.02939892,7.10838919e-16 9.00001,7.10838919e-16 Z M6.22217397,6.66666667 C6.22217398,8.139426 7.46579731,9.33333333 8.99988443,9.33333332 C10.5339715,9.33333332 11.7775949,8.13942598 11.7775949,6.66666666 C11.7775949,5.19390733 10.5339715,4 8.99988442,4 C8.2631898,4 7.55666828,4.28095158 7.03574652,4.78104859 C6.51482476,5.2811456 6.22217397,5.9594227 6.22217397,6.66666667 Z M11.5331564,9.92 L11.3053841,9.92 C11.2109008,9.92224506 11.1180404,9.94407727 11.0331685,9.984 C11.0331685,9.984 10.8498396,10.0853333 10.683177,10.1546667 C10.155172,10.3661797 9.58867865,10.4749491 9.01655068,10.4746667 C8.44406746,10.4784597 7.87685085,10.3695515 7.34992441,10.1546667 C7.18326178,10.0853333 6.99437747,9.98400001 6.99437747,9.984 C6.91082738,9.94068325 6.81710656,9.91864876 6.72216185,9.92 L6.48327875,9.92 C5.5062327,10.0912269 4.6920473,10.7375417 4.33333086,11.6266667 C4.11220334,12.1612926 3.99908236,12.7314362 4.00000561,13.3066667 C4.01951437,13.4767294 4.12282422,13.6274827 4.27777665,13.712 C4.27777665,13.712 5.8332945,14.6666667 8.99988442,14.6666667 C12.1664743,14.6666667 13.7219922,13.712 13.7219922,13.712 C13.8784343,13.6264155 13.9819672,13.4733487 13.9997632,13.3013333 C14.0058002,12.7353142 13.8963362,12.1736368 13.6775488,11.648 C13.3333739,10.7431367 12.5188916,10.0787056 11.5331564,9.89866667 L11.5331564,9.92 Z" id="合并形状"></path>
                </g>
            </g>
        </g>
    </g>
</svg>