<?xml version="1.0" encoding="UTF-8"?>
<svg width="15px" height="15px" viewBox="0 0 15 15" version="1.1" xmlns="http://www.w3.org/2000/svg" xmlns:xlink="http://www.w3.org/1999/xlink">
    <!-- Generator: Sketch 53.2 (72643) - https://sketchapp.com -->
    <title>登出</title>
    <desc>Created with Sketch.</desc>
    <g id="Page-1" stroke="none" stroke-width="1" fill="none" fill-rule="evenodd">
        <g id="2.0应用提交记录" transform="translate(-1172.000000, -98.000000)">
            <g id="导航">
                <g id="登录应用" transform="translate(1160.000000, 50.000000)">
                    <g id="登出" transform="translate(13.000000, 45.000000)">
                        <g transform="translate(0.000000, 3.000000)">
                            <path d="M5.66666096,4.88771415 C5.66666096,5.35313649 6.03976027,5.73042826 6.5,5.73042826 C6.96023973,5.73042826 7.33333904,5.35313649 7.33333904,4.88771415 L7.33333904,0.842714117 C7.33333904,0.377291769 6.96023973,0 6.5,0 C6.03976027,0 5.66666096,0.377291769 5.66666096,0.842714117 L5.66666096,4.88771415 Z" id="路径" fill-opacity="0.5" fill="#333333" fill-rule="nonzero"></path>
                            <path d="M10.1340517,2 C11.8630996,3.17898814 13,5.17521181 13,7.43984507 C13,11.0629872 10.0899188,14 6.5,14 C2.91008118,14 0,11.0629872 0,7.43984507 C0,5.23698862 1.07569004,3.28763011 2.72606642,2.0979908" id="Stroke-1" stroke-opacity="0.5" stroke="#333333" stroke-width="2" stroke-linecap="round" stroke-linejoin="round"></path>
                        </g>
                    </g>
                </g>
            </g>
        </g>
    </g>
</svg>