<?xml version="1.0" encoding="UTF-8"?>
<svg width="36px" height="36px" viewBox="0 0 36 36" version="1.1" xmlns="http://www.w3.org/2000/svg" xmlns:xlink="http://www.w3.org/1999/xlink">
    <!-- Generator: Sketch 53.2 (72643) - https://sketchapp.com -->
    <title>成功</title>
    <desc>Created with Sketch.</desc>
    <g id="Page-1" stroke="none" stroke-width="1" fill="none" fill-rule="evenodd">
        <g id="1.2币用宝应用上架资料提交" transform="translate(-472.000000, -275.000000)" fill="#51A0F1" fill-rule="nonzero">
            <g id="成功" transform="translate(472.000000, 275.000000)">
                <path d="M18,36 C8.05982143,36 0,27.9401786 0,18 C0,8.05982143 8.05982143,0 18,0 C27.9401786,0 36,8.05982143 36,18 C36,27.9401786 27.9401786,36 18,36 Z M18,3.00133929 C9.71517857,3.00133929 3.00133929,9.71517857 3.00133929,18 C3.00133929,26.2848214 9.71517857,32.9986607 18,32.9986607 C26.2848214,32.9986607 32.9986607,26.2848214 32.9986607,18 C32.9986607,9.71517857 26.2848214,3.00133929 18,3.00133929 Z M17.634375,24.9870536 C17.0477679,25.5736607 16.0995536,25.5736607 15.5169643,24.9870536 C15.4084821,24.8705357 15.3200893,24.7379464 15.2558036,24.5973214 L9.68303571,18.8558036 C9.09642857,18.2691964 9.09642857,17.3209821 9.67901786,16.734375 C10.265625,16.1477679 11.2138393,16.1477679 11.8004464,16.7303571 L11.8285714,16.7584821 L16.6540179,21.7245536 L25.8669643,12.5116071 C26.4616071,11.9370536 27.4138393,11.953125 27.9883929,12.5477679 C28.5508929,13.1303571 28.5508929,14.0504464 27.9883929,14.6290179 L17.634375,24.9870536 L17.634375,24.9870536 Z" id="形状"></path>
            </g>
        </g>
    </g>
</svg>