<?xml version="1.0" encoding="UTF-8"?>
<svg width="36px" height="36px" viewBox="0 0 36 36" version="1.1" xmlns="http://www.w3.org/2000/svg" xmlns:xlink="http://www.w3.org/1999/xlink">
    <!-- Generator: Sketch 53.2 (72643) - https://sketchapp.com -->
    <title>分组 10</title>
    <desc>Created with Sketch.</desc>
    <g id="Page-1" stroke="none" stroke-width="1" fill="none" fill-rule="evenodd">
        <g id="1.2币用宝应用上架资料提交" transform="translate(-472.000000, -381.000000)">
            <g id="分组-2" transform="translate(462.000000, 381.000000)">
                <g id="分组-10" transform="translate(10.000000, 0.000000)">
                    <text id="2" font-family="PingFang-SC-Heavy, PingFang SC" font-size="16" font-weight="600" line-spacing="20" fill="#333333">
                        <tspan x="13" y="24">2</tspan>
                    </text>
                    <path d="M18,36 C8.05982143,36 0,27.9401786 0,18 C0,8.05982143 8.05982143,0 18,0 C27.9401786,0 36,8.05982143 36,18 C36,27.9401786 27.9401786,36 18,36 Z M18,3.00133929 C9.71517857,3.00133929 3.00133929,9.71517857 3.00133929,18 C3.00133929,26.2848214 9.71517857,32.9986607 18,32.9986607 C26.2848214,32.9986607 32.9986607,26.2848214 32.9986607,18 C32.9986607,9.71517857 26.2848214,3.00133929 18,3.00133929 Z" id="形状" fill="#000000" fill-rule="nonzero"></path>
                </g>
            </g>
        </g>
    </g>
</svg>