<?xml version="1.0" encoding="UTF-8"?>
<svg width="80px" height="80px" viewBox="0 0 80 80" version="1.1" xmlns="http://www.w3.org/2000/svg" xmlns:xlink="http://www.w3.org/1999/xlink">
    <!-- Generator: Sketch 53.2 (72643) - https://sketchapp.com -->
    <title>形状</title>
    <desc>Created with Sketch.</desc>
    <g id="Page-1" stroke="none" stroke-width="1" fill="none" fill-rule="evenodd">
        <g id="1.5币用宝应用上架资料提交成功" transform="translate(-920.000000, -380.000000)" fill="#51A0F1" fill-rule="nonzero">
            <g id="Reset-Password1" transform="translate(730.000000, 320.000000)">
                <g id="Group-10" transform="translate(166.000000, 60.000000)">
                    <g id="分组" transform="translate(12.000000, 0.000000)">
                        <g id="成功" transform="translate(12.000000, 0.000000)">
                            <path d="M74.9715515,59.3677341 C74.4610179,60.2193772 73.4399508,60.5600345 72.5890614,60.0490486 C71.7381721,59.5380627 71.3978164,58.516091 71.90835,57.6644478 C81.7786662,39.950271 75.3119073,17.6372212 57.6134092,7.92848967 C39.9149111,-1.95057052 17.6216106,4.52191719 7.92147218,22.2360941 C-1.77866621,39.950271 4.51791485,62.2633207 22.216413,71.9720523 C34.9797529,79.1258545 50.4659388,77.7632255 62.0380337,69.2467943 C62.7187452,68.7358084 63.9099902,68.906137 64.4205238,69.5874515 C64.9310574,70.268766 64.7608796,71.4610664 64.0801681,71.9720523 C51.487006,81.3401266 34.4692193,82.7027556 20.6848122,75.0379675 C1.28453539,64.3072642 -5.69275713,39.950271 5.02844845,20.7031365 C15.749654,1.28567334 40.0850889,-5.69780024 59.3151878,5.03290306 C78.7154646,15.5932777 85.6927571,39.950271 74.9715515,59.3677341 L74.9715515,59.3677341 Z M21.1953458,39.0986278 L37.0218873,53.2359036 L60.5064329,28.0272673 C61.1871444,27.3459528 62.2082116,27.3459528 62.888923,28.0272673 C63.5696345,28.7085818 63.5696345,29.7305535 62.888923,30.411868 L37.0218873,58.0051051 L18.8128556,41.4832286 C18.1321442,40.8019141 18.1321442,39.7799423 18.6426778,39.0986278 C19.3233892,38.4173133 20.3444564,38.4173133 21.1953458,39.0986278 Z" id="形状"></path>
                        </g>
                    </g>
                </g>
            </g>
        </g>
    </g>
</svg>