<?xml version="1.0" encoding="UTF-8"?>
<svg width="24px" height="24px" viewBox="0 0 24 24" version="1.1" xmlns="http://www.w3.org/2000/svg" xmlns:xlink="http://www.w3.org/1999/xlink">
    <!-- Generator: Sketch 53.2 (72643) - https://sketchapp.com -->
    <title>Shape</title>
    <desc>Created with Sketch.</desc>
    <g id="Page-1" stroke="none" stroke-width="1" fill="none" fill-rule="evenodd">
        <g id="1.1首页" transform="translate(-1302.000000, -20.000000)" fill="#FFFFFF" fill-rule="nonzero">
            <g id="导航" transform="translate(361.000000, 13.000000)">
                <path d="M956.924107,24.5044643 L958.892857,15.2232143 C958.973214,14.8303571 958.926339,14.5491071 958.752232,14.3794643 C958.578125,14.2098214 958.348214,14.1785714 958.0625,14.2857143 L946.491071,18.7455357 C946.232143,18.84375 946.055804,18.9553571 945.962054,19.0803571 C945.868304,19.2053571 945.857143,19.3236607 945.928571,19.4352679 C946,19.546875 946.142857,19.6339286 946.357143,19.6964286 L949.316964,20.6205357 L956.1875,16.2946429 C956.375,16.1696429 956.517857,16.1428571 956.616071,16.2142857 C956.678571,16.2589286 956.660714,16.3258929 956.5625,16.4151786 L951.004464,21.4375 L950.790179,24.4910714 C950.995536,24.4910714 951.196429,24.3928571 951.392857,24.1964286 L952.839286,22.8035714 L955.839286,25.0133929 C956.410714,25.3348214 956.772321,25.1651786 956.924107,24.5044643 L956.924107,24.5044643 Z M965,19 C965,20.625 964.683036,22.1785714 964.049107,23.6607143 C963.415179,25.1428571 962.5625,26.4196429 961.491071,27.4910714 C960.419643,28.5625 959.142857,29.4151786 957.660714,30.0491071 C956.178571,30.6830357 954.625,31 953,31 C951.375,31 949.821429,30.6830357 948.339286,30.0491071 C946.857143,29.4151786 945.580357,28.5625 944.508929,27.4910714 C943.4375,26.4196429 942.584821,25.1428571 941.950893,23.6607143 C941.316964,22.1785714 941,20.625 941,19 C941,17.375 941.316964,15.8214286 941.950893,14.3392857 C942.584821,12.8571429 943.4375,11.5803571 944.508929,10.5089286 C945.580357,9.43750002 946.857143,8.58482145 948.339286,7.95089287 C949.821429,7.31696429 951.375,7 953,7 C954.625,7 956.178571,7.31696429 957.660714,7.95089287 C959.142857,8.58482145 960.419643,9.43750002 961.491071,10.5089286 C962.5625,11.5803571 963.415179,12.8571429 964.049107,14.3392857 C964.683036,15.8214286 965,17.375 965,19 Z" id="Shape"></path>
            </g>
        </g>
    </g>
</svg>