<?xml version="1.0" encoding="UTF-8"?>
<svg width="24px" height="24px" viewBox="0 0 24 24" version="1.1" xmlns="http://www.w3.org/2000/svg" xmlns:xlink="http://www.w3.org/1999/xlink">
    <!-- Generator: Sketch 53.2 (72643) - https://sketchapp.com -->
    <title>Shape</title>
    <desc>Created with Sketch.</desc>
    <g id="Page-1" stroke="none" stroke-width="1" fill="none" fill-rule="evenodd">
        <g id="1.1首页" transform="translate(-1346.000000, -20.000000)" fill="#FFFFFF" fill-rule="nonzero">
            <g id="导航" transform="translate(361.000000, 13.000000)">
                <path d="M997,31 C1003.62736,31 1009,25.62736 1009,19 C1009,12.37264 1003.62736,7 997,7 C990.37264,7 985,12.37264 985,19 C985,25.62736 990.37264,31 997,31 Z M993.47248,15.92656 C995.77984,17.09152 997.7296,17.02432 997.7296,17.02432 C997.7296,17.02432 996.9904,14.44816 999.2752,13.30576 C1001.56,12.16336 1003.13248,14.0896 1003.13248,14.0896 C1003.13248,14.0896 1003.53088,13.98016 1003.82752,13.87072 C1004.12464,13.76128 1004.55424,13.56592 1004.55424,13.56592 L1003.85008,14.82256 L1004.9344,14.70736 C1004.9344,14.70736 1004.80096,14.9032 1004.36704,15.30112 C1003.93312,15.69904 1003.75408,15.90448 1003.75408,15.90448 C1003.75408,15.90448 1003.90912,19.00528 1002.27568,21.39232 C1000.64224,23.77984 998.53168,25.21264 995.46592,25.51408 C992.40016,25.81552 990.40384,24.57328 990.40384,24.57328 C990.40384,24.57328 991.74448,24.49648 992.59888,24.17008 C993.45328,23.84368 994.68208,22.98304 994.68208,22.98304 C994.68208,22.98304 992.93488,22.44544 992.30752,21.84064 C991.68064,21.23584 991.52368,20.87728 991.52368,20.87728 L993.24832,20.85472 C993.24832,20.85472 991.43392,19.89184 990.91888,19.13008 C990.40384,18.36832 990.33664,17.62912 990.33664,17.62912 L991.6624,18.1648 C991.6624,18.1648 990.56032,16.66624 990.40384,15.50128 C990.24688,14.33632 990.60544,13.70944 990.60544,13.70944 C990.60544,13.70944 991.16512,14.7616 993.47248,15.92656 L993.47248,15.92656 Z" id="Shape"></path>
            </g>
        </g>
    </g>
</svg>