<?xml version="1.0" encoding="UTF-8"?>
<svg width="24px" height="24px" viewBox="0 0 24 24" version="1.1" xmlns="http://www.w3.org/2000/svg" xmlns:xlink="http://www.w3.org/1999/xlink">
    <!-- Generator: Sketch 53.2 (72643) - https://sketchapp.com -->
    <title>Shape</title>
    <desc>Created with Sketch.</desc>
    <g id="Page-1" stroke="none" stroke-width="1" fill="none" fill-rule="evenodd">
        <g id="1.1首页" transform="translate(-1390.000000, -20.000000)" fill="#FFFFFF" fill-rule="nonzero">
            <g id="导航" transform="translate(361.000000, 13.000000)">
                <path d="M1042.58363,18.9902759 C1042.31,18.9902759 1042.03629,19.2443818 1042.03629,19.5571788 C1042.03629,19.8113381 1042.30987,20.0654706 1042.58363,20.0654706 C1042.99428,20.0654706 1043.28753,19.8113114 1043.28753,19.5571788 C1043.28753,19.2444085 1042.99434,18.9902759 1042.58363,18.9902759 L1042.58363,18.9902759 L1042.58363,18.9902759 Z M1040.78494,16.3507762 C1041.21506,16.3507762 1041.48883,16.0771421 1041.48883,15.6664644 C1041.48883,15.2363385 1041.21509,14.9822059 1040.78494,14.9822059 C1040.37437,14.9822059 1039.98332,15.2363652 1039.98332,15.6664644 C1039.9833,16.0771955 1040.37439,16.3507762 1040.78494,16.3507762 L1040.78494,16.3507762 Z M1041.00001,7 C1034.37253,7 1029,12.3725319 1029,19.0000133 C1029,25.6274414 1034.37253,31 1041.00001,31 C1047.62744,31 1053,25.6274681 1053,19.0000133 C1053.00003,12.3725319 1047.62749,7 1041.00001,7 L1041.00001,7 Z M1038.73208,22.0402134 C1038.00861,22.0402134 1037.48073,21.9229912 1036.79645,21.7274164 L1034.82179,22.7246319 L1035.38888,21.0431046 C1034.0007,20.0656307 1033.17947,18.8338908 1033.17947,17.3284102 C1033.17947,14.6694356 1035.68206,12.6360817 1038.73211,12.6360817 C1041.43017,12.6360817 1043.83501,14.2393364 1044.30422,16.5073747 C1044.10872,16.4681851 1043.9327,16.4487103 1043.77632,16.4487103 C1041.11734,16.4487103 1039.06451,18.4428745 1039.06451,20.8477165 C1039.06451,21.2582343 1039.12318,21.6297224 1039.22093,22.020792 C1039.06451,22.0402134 1038.88849,22.0402134 1038.73208,22.0402134 L1038.73208,22.0402134 Z M1046.885,23.9562118 L1047.27596,25.3639983 L1045.79009,24.5233281 C1045.22313,24.6405502 1044.67568,24.8165169 1044.10872,24.8165169 C1041.4888,24.8165169 1039.41639,23.0178474 1039.41639,20.7890254 C1039.41639,18.5601767 1041.48886,16.7614806 1044.10872,16.7614806 C1046.59168,16.7614806 1048.82053,18.5601767 1048.82053,20.7890254 C1048.82053,22.0402134 1047.97985,23.1546244 1046.885,23.9562384 L1046.885,23.9562384 L1046.885,23.9562118 Z M1036.91378,14.9822059 C1036.50321,14.9822059 1036.07311,15.2363652 1036.07311,15.6664644 C1036.07311,16.0771688 1036.50321,16.3509095 1036.91378,16.3509095 C1037.30487,16.3509095 1037.61767,16.0771688 1037.61767,15.6664644 C1037.61767,15.2363652 1037.30487,14.9822059 1036.91378,14.9822059 L1036.91378,14.9822059 Z M1045.65329,18.9902759 C1045.35996,18.9902759 1045.1058,19.2443818 1045.1058,19.5571788 C1045.1058,19.8113381 1045.35996,20.0654706 1045.65329,20.0654706 C1046.04425,20.0654706 1046.33754,19.8113114 1046.33754,19.5571788 C1046.33754,19.2444085 1046.04425,18.9902759 1045.65329,18.9902759 L1045.65329,18.9902759 L1045.65329,18.9902759 Z" id="Shape"></path>
            </g>
        </g>
    </g>
</svg>