<?xml version="1.0" encoding="UTF-8"?>
<svg width="20px" height="20px" viewBox="0 0 20 20" version="1.1" xmlns="http://www.w3.org/2000/svg" xmlns:xlink="http://www.w3.org/1999/xlink">
    <!-- Generator: Sketch 51.1 (57501) - http://www.bohemiancoding.com/sketch -->
    <title>484d294 copy</title>
    <desc>Created with Sketch.</desc>
    <defs>
        <circle id="path-1" cx="10" cy="10" r="10"></circle>
    </defs>
    <g id="交易所" stroke="none" stroke-width="1" fill="none" fill-rule="evenodd">
        <g id="首页1" transform="translate(-1796.000000, -76.000000)">
            <g id="导航">
                <g id="EN" transform="translate(1572.000000, 18.000000)">
                    <g id="Group-5" transform="translate(214.000000, 48.000000)">
                        <g id="484d294-copy" transform="translate(10.000000, 10.000000)">
                            <mask id="mask-2" fill="white">
                                <use xlink:href="#path-1"></use>
                            </mask>
                            <use id="Mask" fill="#D64B24" fill-rule="nonzero" xlink:href="#path-1"></use>
                            <g id="4e72ed6" mask="url(#mask-2)" fill-rule="nonzero">
                                <g transform="translate(-1.000000, 1.000000)">
                                    <path d="M0.00410757947,29.0588069 L41.9927775,29.0588069 L41.9927775,1.01779951 L0.00410757947,1.01779951 L0.00410757947,29.0588069 Z M0.172210269,28.8866308 L41.8204303,28.8866308 L41.8204303,1.18997555 L0.172210269,1.18997555 L0.172210269,28.8866308 Z M41.9237702,28.8866308 L41.9237702,29.0966308 L41.9237702,28.8866308 Z" id="Fill-1" fill="#353636"></path>
                                    <polygon id="Fill-2" fill="#D64B24" points="0 27.8688313 41.8204303 27.8688313 41.8204303 0 0 0"></polygon>
                                    <path d="M14.537244,12.5580817 L14.4684078,13.4881404 L15.3639971,13.8325951 L14.4339042,14.0738127 L14.3650337,15.0039056 L13.8827355,14.2115193 L12.9526425,14.4527369 L13.5726817,13.729221 L13.0560166,12.9370059 L13.9516059,13.2814264 L14.537244,12.5580817 Z M16.776354,9.66432616 L17.0864421,10.5600523 L18.016535,10.5600523 L17.2586523,11.1111868 L17.5342367,12.006913 L16.776354,11.4557443 L16.0185056,12.006913 L16.3285594,11.1111868 L15.570711,10.5600523 L16.500804,10.5600523 L16.776354,9.66432616 Z M17.7409506,5.87508411 L17.3276597,6.70183716 L17.9821682,7.35634571 L17.0520753,7.21846797 L16.6386475,8.04535794 L16.500804,7.11512812 L15.570711,6.97738729 L16.3974298,6.56395942 L16.2597233,5.63386651 L16.9142318,6.28840929 L17.7409506,5.87508411 Z M14.537244,2.80911834 L14.5027746,3.77371491 L15.3639971,4.11813546 L14.4339042,4.35935305 L14.3995374,5.28944596 L13.8827355,4.49709388 L12.9871462,4.70380782 L13.5726817,3.98042884 L13.0903834,3.18804255 L13.9516059,3.56700097 L14.537244,2.80911834 Z M7.09639804,4.2560132 L7.99198728,6.97738729 L10.8512733,6.97738729 L8.5432929,8.63085917 L9.40437849,11.3524044 L7.09639804,9.66432616 L4.78831492,11.3524044 L5.68404107,8.63085917 L3.37592372,6.97738729 L6.23517555,6.97738729 L7.09639804,4.2560132 Z" id="Fill-3" fill="#FBDC00"></path>
                                </g>
                            </g>
                        </g>
                    </g>
                </g>
            </g>
        </g>
    </g>
</svg>